<mxfile host="app.diagrams.net" modified="2022-05-26T09:07:57.437Z" agent="5.0 (Windows NT 10.0; Win64; x64) AppleWebKit/537.36 (KHTML, like Gecko) Chrome/101.0.4951.67 Safari/537.36" etag="p0w96M2eIvji-XXEgJfl" version="18.1.2" type="github">
  <diagram id="ujpf-ucKjrVQCLT8i0TZ" name="Page-1">
    <mxGraphModel dx="2844" dy="1544" grid="1" gridSize="9" guides="1" tooltips="1" connect="1" arrows="1" fold="1" page="1" pageScale="1" pageWidth="3300" pageHeight="4681" math="0" shadow="0">
      <root>
        <mxCell id="0" />
        <mxCell id="1" parent="0" />
      </root>
    </mxGraphModel>
  </diagram>
</mxfile>
